<svg width="142" height="25" viewBox="0 0 142 25" fill="none" xmlns="http://www.w3.org/2000/svg">
<path d="M3.92 20.408H9.608V23H0.536V6.056H3.92V20.408ZM24.1259 15.848C24.1259 16.184 24.0859 16.568 24.0059 17H14.2619C14.3099 18.184 14.6299 19.056 15.2219 19.616C15.8139 20.176 16.5499 20.456 17.4299 20.456C18.2139 20.456 18.8619 20.264 19.3739 19.88C19.9019 19.496 20.2379 18.976 20.3819 18.32H23.9579C23.7819 19.248 23.4059 20.08 22.8299 20.816C22.2539 21.552 21.5099 22.128 20.5979 22.544C19.7019 22.96 18.7019 23.168 17.5979 23.168C16.3019 23.168 15.1499 22.896 14.1419 22.352C13.1339 21.792 12.3499 21 11.7899 19.976C11.2299 18.952 10.9499 17.744 10.9499 16.352C10.9499 14.96 11.2299 13.752 11.7899 12.728C12.3499 11.688 13.1339 10.896 14.1419 10.352C15.1499 9.808 16.3019 9.536 17.5979 9.536C18.9099 9.536 20.0539 9.808 21.0299 10.352C22.0219 10.896 22.7819 11.648 23.3099 12.608C23.8539 13.552 24.1259 14.632 24.1259 15.848ZM20.7179 15.512C20.7659 14.424 20.4779 13.6 19.8539 13.04C19.2459 12.48 18.4939 12.2 17.5979 12.2C16.6859 12.2 15.9179 12.48 15.2939 13.04C14.6699 13.6 14.3259 14.424 14.2619 15.512H20.7179ZM33.6322 20.096V23H31.8562C30.3682 23 29.2242 22.64 28.4242 21.92C27.6402 21.2 27.2482 20 27.2482 18.32V12.56H25.4002V9.704H27.2482V6.416H30.6322V9.704H33.6082V12.56H30.6322V18.368C30.6322 19.008 30.7602 19.456 31.0162 19.712C31.2722 19.968 31.7042 20.096 32.3122 20.096H33.6322ZM38.4673 3.824L38.1553 8.936H35.8753L35.5633 3.824H38.4673ZM45.62 9.536C47.236 9.536 48.532 9.944 49.508 10.76C50.484 11.576 51.092 12.664 51.332 14.024H48.164C48.036 13.384 47.748 12.872 47.3 12.488C46.852 12.104 46.268 11.912 45.548 11.912C44.972 11.912 44.524 12.048 44.204 12.32C43.884 12.592 43.724 12.96 43.724 13.424C43.724 13.792 43.852 14.088 44.108 14.312C44.364 14.536 44.684 14.712 45.068 14.84C45.452 14.968 46.004 15.12 46.724 15.296C47.732 15.52 48.548 15.76 49.172 16.016C49.812 16.256 50.356 16.648 50.804 17.192C51.268 17.72 51.5 18.44 51.5 19.352C51.5 20.488 51.052 21.408 50.156 22.112C49.276 22.816 48.084 23.168 46.58 23.168C44.852 23.168 43.468 22.784 42.428 22.016C41.388 21.232 40.756 20.12 40.532 18.68H43.772C43.852 19.336 44.14 19.856 44.636 20.24C45.132 20.608 45.78 20.792 46.58 20.792C47.156 20.792 47.596 20.656 47.9 20.384C48.204 20.096 48.356 19.728 48.356 19.28C48.356 18.896 48.22 18.584 47.948 18.344C47.692 18.104 47.364 17.92 46.964 17.792C46.58 17.664 46.028 17.512 45.308 17.336C44.316 17.112 43.508 16.888 42.884 16.664C42.276 16.424 41.748 16.048 41.3 15.536C40.868 15.024 40.652 14.32 40.652 13.424C40.652 12.272 41.092 11.336 41.972 10.616C42.852 9.896 44.068 9.536 45.62 9.536ZM66.3509 20.096V23H64.5749C63.0869 23 61.9429 22.64 61.1429 21.92C60.3589 21.2 59.9669 20 59.9669 18.32V12.56H58.1189V9.704H59.9669V6.416H63.3509V9.704H66.3269V12.56H63.3509V18.368C63.3509 19.008 63.4789 19.456 63.7349 19.712C63.9909 19.968 64.4229 20.096 65.0309 20.096H66.3509ZM73.994 9.536C75.114 9.536 76.074 9.8 76.874 10.328C77.674 10.856 78.242 11.568 78.578 12.464V9.704H81.938V23H78.578V20.216C78.242 21.112 77.674 21.832 76.874 22.376C76.074 22.904 75.114 23.168 73.994 23.168C72.874 23.168 71.866 22.896 70.97 22.352C70.074 21.808 69.37 21.024 68.858 20C68.362 18.96 68.114 17.744 68.114 16.352C68.114 14.96 68.362 13.752 68.858 12.728C69.37 11.688 70.074 10.896 70.97 10.352C71.866 9.808 72.874 9.536 73.994 9.536ZM75.05 12.488C73.994 12.488 73.146 12.832 72.506 13.52C71.866 14.208 71.546 15.152 71.546 16.352C71.546 17.552 71.866 18.496 72.506 19.184C73.146 19.856 73.994 20.192 75.05 20.192C76.074 20.192 76.914 19.848 77.57 19.16C78.242 18.456 78.578 17.52 78.578 16.352C78.578 15.168 78.242 14.232 77.57 13.544C76.914 12.84 76.074 12.488 75.05 12.488ZM88.3888 5.24V23H85.0048V5.24H88.3888ZM99.2261 23L94.8341 17.192V23H91.4501V5.24H94.8341V15.224L99.2021 9.704H103.21L97.6181 16.328L103.354 23H99.2261ZM109.677 5.36L109.245 17.36H106.389L105.957 5.36H109.677ZM109.653 19.472V23H106.005V19.472H109.653ZM117.102 24.68H141.102V0.68H117.102V24.68Z" fill="#232536"/>
</svg>
